HIERARCHY
ROOT joint_Root
{
	OFFSET 0.0 0.0 0.0
	CHANNELS 6 Xposition Yposition Zposition Zrotation Xrotation Yrotation 
	JOINT Hips
	{
		OFFSET 4.5925 91.4895 -427.239
		CHANNELS 6 Xposition Yposition Zposition Zrotation Xrotation Yrotation 
		JOINT Spine
		{
			OFFSET 15.7357 0.0 0.0
			CHANNELS 6 Xposition Yposition Zposition Zrotation Xrotation Yrotation 
			JOINT Chest
			{
				OFFSET 8.98455 -0.406207 0.0
				CHANNELS 6 Xposition Yposition Zposition Zrotation Xrotation Yrotation 
				JOINT Neck
				{
					OFFSET 16.3773 0.0 0.0
					CHANNELS 6 Xposition Yposition Zposition Zrotation Xrotation Yrotation 
					JOINT Head
					{
						OFFSET 6.45672 0.0 0.0
						CHANNELS 6 Xposition Yposition Zposition Zrotation Xrotation Yrotation 
						End Site
						{
							OFFSET 0.0 0.0 0.0
						}
					}
				}
				JOINT Shoulder_L
				{
					OFFSET 12.9942 -0.242716 4.98039
					CHANNELS 6 Xposition Yposition Zposition Zrotation Xrotation Yrotation 
					JOINT UpperArm_L
					{
						OFFSET 5.34809 0.0 0.0
						CHANNELS 6 Xposition Yposition Zposition Zrotation Xrotation Yrotation 
						JOINT LowerArm_L
						{
							OFFSET 24.3286 1.87007e-05 0.0
							CHANNELS 6 Xposition Yposition Zposition Zrotation Xrotation Yrotation 
							JOINT Hand_L
							{
								OFFSET 22.2916 0.0 0.0
								CHANNELS 6 Xposition Yposition Zposition Zrotation Xrotation Yrotation 
								End Site
								{
									OFFSET 0.0 0.0 0.0
								}
							}
						}
					}
				}
				JOINT Shoulder_R
				{
					OFFSET 12.9945 -0.242716 -4.98039
					CHANNELS 6 Xposition Yposition Zposition Zrotation Xrotation Yrotation 
					JOINT UpperArm_R
					{
						OFFSET -5.34813 0.0 0.0
						CHANNELS 6 Xposition Yposition Zposition Zrotation Xrotation Yrotation 
						JOINT LowerArm_R
						{
							OFFSET -24.3289 0.000322201 0.0
							CHANNELS 6 Xposition Yposition Zposition Zrotation Xrotation Yrotation 
							JOINT Hand_R
							{
								OFFSET -22.2915 -0.000108084 0.0
								CHANNELS 6 Xposition Yposition Zposition Zrotation Xrotation Yrotation 
								End Site
								{
									OFFSET 0.0 0.0 0.0
								}
							}
						}
					}
				}
			}
		}
		JOINT UpperLeg_L
		{
			OFFSET -2.19248 -6.46944 0.0
			CHANNELS 6 Xposition Yposition Zposition Zrotation Xrotation Yrotation 
			JOINT LowerLeg_L
			{
				OFFSET 39.0811 0.0 -1.23785e-05
				CHANNELS 6 Xposition Yposition Zposition Zrotation Xrotation Yrotation 
				JOINT Foot_L
				{
					OFFSET 40.9854 0.0 -1.26872e-05
					CHANNELS 6 Xposition Yposition Zposition Zrotation Xrotation Yrotation 
					JOINT Toes_L
					{
						OFFSET 11.7543 0.0 0.0
						CHANNELS 6 Xposition Yposition Zposition Zrotation Xrotation Yrotation 
						End Site
						{
							OFFSET 0.0 0.0 0.0
						}
					}
				}
			}
		}
		JOINT UpperLeg_R
		{
			OFFSET -2.19251 6.46944 0.0
			CHANNELS 6 Xposition Yposition Zposition Zrotation Xrotation Yrotation 
			JOINT LowerLeg_R
			{
				OFFSET -39.0811 -0.00228153 -0.0401928
				CHANNELS 6 Xposition Yposition Zposition Zrotation Xrotation Yrotation 
				JOINT Foot_R
				{
					OFFSET -40.9854 0.0 0.0
					CHANNELS 6 Xposition Yposition Zposition Zrotation Xrotation Yrotation 
					JOINT Toes_R
					{
						OFFSET -11.7543 0.0 0.0
						CHANNELS 6 Xposition Yposition Zposition Zrotation Xrotation Yrotation 
						End Site
						{
							OFFSET 0.0 0.0 0.0
						}
					}
				}
			}
		}
	}
}
MOTION
Frames:	6
Frame Time:	0.0333333
0.000000 0.000000 0.000000 0.000000 0.000000 -0.000000 -1.574880 90.856700 -4.757670 88.630900 -1.754550 13.188200 15.735700 0.000005 -0.000001 90.571000 75.575200 -90.330900 8.984550 -0.406207 -0.000000 21.081800 0.308124 0.424557 16.377300 -0.000001 -0.000001 12.350500 -2.934660 1.550920 6.456720 -0.000001 -0.000000 -8.573160 -3.153260 7.026760 12.994200 -0.242716 4.980390 -90.318900 1.114170 -74.025500 5.348090 -0.000007 -0.000001 -73.001800 -16.623400 -82.722300 24.328600 0.000019 0.000005 31.533600 -5.109530 -98.258400 22.291600 -0.000001 0.000005 14.992800 5.093250 5.267900 12.994500 -0.242716 -4.980390 88.805100 10.157000 -83.254500 -5.348130 -0.000001 -0.000004 -53.854900 34.861900 -26.552200 -24.328900 0.000322 -0.000009 2.880720 6.633340 -23.546500 -22.291500 -0.000108 -0.000004 19.438600 5.425500 -3.785450 -2.192480 -6.469440 -0.000000 -171.978000 -14.557200 -1.215670 39.081100 -0.000007 -0.000012 -0.153669 0.244442 32.155800 40.985400 -0.000006 -0.000013 -0.324433 5.957600 -67.046900 11.754300 -0.000000 0.000003 -0.000168 -0.001595 -16.638000 -2.192510 6.469440 -0.000001 173.737000 25.282400 -178.724000 -39.081100 -0.002282 -0.040193 -0.173657 0.297376 30.755500 -40.985400 0.000008 0.000006 4.812320 16.025600 -68.181800 -11.754300 -0.000006 -0.000006 -0.002342 -0.032922 -17.911900
0.000000 0.000000 0.000000 0.000000 0.000000 -0.000000 -1.580820 90.851400 -4.712560 88.635300 -1.794160 13.230100 15.735700 0.000005 -0.000001 90.589800 75.548800 -90.357100 8.984550 -0.406207 -0.000000 21.134500 0.317152 0.408047 16.377300 -0.000001 -0.000001 12.457200 -2.956820 1.539470 6.456720 -0.000001 -0.000000 -8.479890 -3.151150 7.007700 12.994200 -0.242716 4.980390 -90.324200 1.130110 -73.991100 5.348090 -0.000007 -0.000001 -73.081900 -16.606000 -82.810700 24.328600 0.000019 0.000005 31.425900 -5.101040 -98.279300 22.291600 -0.000001 0.000005 15.058400 5.093850 5.254080 12.994500 -0.242716 -4.980390 88.798500 10.146500 -83.210800 -5.348130 -0.000001 -0.000004 -53.767700 34.827900 -26.695000 -24.328900 0.000322 -0.000009 2.877370 6.619740 -23.565000 -22.291500 -0.000108 -0.000004 19.484100 5.426020 -3.803100 -2.192480 -6.469440 -0.000000 -171.955000 -14.572300 -1.137760 39.081100 -0.000007 -0.000012 -0.152559 0.242526 32.171800 40.985400 -0.000006 -0.000013 -0.333087 5.948090 -67.091400 11.754300 -0.000000 0.000003 -0.000164 -0.001568 -16.637000 -2.192510 6.469440 -0.000001 173.708000 25.265600 -178.661000 -39.081100 -0.002282 -0.040193 -0.174571 0.298646 30.777900 -40.985400 0.000008 0.000006 4.829760 16.065800 -68.224200 -11.754300 -0.000006 -0.000006 -0.002474 -0.034496 -17.975900
0.000000 0.000000 0.000000 0.000000 0.000000 -0.000000 -1.578420 90.841200 -4.690330 88.629500 -1.831410 13.278800 15.735700 0.000005 -0.000001 90.634600 75.513300 -90.397700 8.984550 -0.406207 -0.000000 21.205100 0.340480 0.411759 16.377300 -0.000001 -0.000001 12.548200 -2.944830 1.500680 6.456720 -0.000001 -0.000000 -8.492510 -3.158420 6.965000 12.994200 -0.242716 4.980390 -90.317200 1.105420 -73.989500 5.348090 -0.000007 -0.000001 -73.156700 -16.630000 -82.823000 24.328600 0.000019 0.000005 31.425400 -5.119260 -98.308500 22.291600 -0.000001 0.000005 15.113900 5.093010 5.273330 12.994500 -0.242716 -4.980390 88.790600 10.149700 -83.168300 -5.348130 -0.000001 -0.000004 -53.707500 34.726600 -26.756200 -24.328900 0.000322 -0.000009 2.888790 6.619240 -23.649900 -22.291500 -0.000108 -0.000004 19.550000 5.424940 -3.766190 -2.192480 -6.469440 -0.000000 -171.926000 -14.571500 -1.082900 39.081100 -0.000007 -0.000012 -0.154961 0.245888 32.219800 40.985400 -0.000006 -0.000013 -0.349367 5.903670 -67.138400 11.754300 -0.000000 0.000003 -0.000171 -0.001625 -16.639100 -2.192510 6.469440 -0.000001 173.681000 25.268000 -178.609000 -39.081100 -0.002282 -0.040193 -0.177070 0.302307 30.822400 -40.985400 0.000008 0.000006 4.839050 16.071900 -68.263900 -11.754300 -0.000006 -0.000006 -0.002396 -0.033573 -17.938300
0.000000 0.000000 0.000000 0.000000 0.000000 -0.000000 -1.588490 90.840700 -4.669030 88.601300 -1.880750 13.299400 15.735700 0.000005 -0.000001 90.701500 75.472200 -90.453900 8.984550 -0.406207 -0.000000 21.287000 0.375860 0.426628 16.377300 -0.000001 -0.000001 12.513600 -2.925610 1.441740 6.456720 -0.000001 -0.000000 -8.609340 -3.127640 6.882450 12.994200 -0.242716 4.980390 -90.330300 1.150060 -73.975800 5.348090 -0.000007 -0.000001 -73.144100 -16.674600 -82.814600 24.328600 0.000019 0.000005 31.342900 -5.115250 -98.328700 22.291600 -0.000001 0.000005 15.148900 5.093830 5.254570 12.994500 -0.242716 -4.980390 88.790200 10.169800 -83.179300 -5.348130 -0.000001 -0.000004 -53.605000 34.653700 -26.849600 -24.328900 0.000322 -0.000009 2.873780 6.589090 -23.635800 -22.291500 -0.000108 -0.000004 19.546900 5.425690 -3.791600 -2.192480 -6.469440 -0.000000 -171.870000 -14.595900 -1.042730 39.081100 -0.000007 -0.000012 -0.156084 0.247555 32.231800 40.985400 -0.000006 -0.000013 -0.359282 5.902930 -67.160800 11.754300 -0.000000 0.000003 -0.000173 -0.001640 -16.639700 -2.192510 6.469440 -0.000001 173.701000 25.243000 -178.566000 -39.081100 -0.002282 -0.040193 -0.175455 0.299820 30.804000 -40.985400 0.000008 0.000006 4.849570 16.118200 -68.270000 -11.754300 -0.000006 -0.000006 -0.002358 -0.033117 -17.919800
0.000000 0.000000 0.000000 0.000000 0.000000 -0.000000 -1.586730 90.845200 -4.677940 88.604700 -1.875830 13.236900 15.735700 0.000005 -0.000001 90.733500 75.461900 -90.476000 8.984550 -0.406207 -0.000000 21.307300 0.393095 0.443138 16.377300 -0.000001 -0.000001 12.325500 -2.935270 1.343080 6.456720 -0.000001 -0.000000 -8.658100 -3.117570 6.774990 12.994200 -0.242716 4.980390 -90.334700 1.168030 -74.009500 5.348090 -0.000007 -0.000001 -73.161200 -16.667000 -82.616300 24.328600 0.000019 0.000005 31.515000 -5.159170 -98.343200 22.291600 -0.000001 0.000005 15.144500 5.095020 5.227550 12.994500 -0.242716 -4.980390 88.794000 10.188100 -83.212800 -5.348130 -0.000001 -0.000004 -53.518400 34.652100 -26.850000 -24.328900 0.000322 -0.000009 2.870600 6.589080 -23.612500 -22.291500 -0.000108 -0.000004 19.563300 5.426000 -3.802430 -2.192480 -6.469440 -0.000000 -171.903000 -14.576500 -1.107430 39.081100 -0.000007 -0.000012 -0.155954 0.247541 32.211800 40.985400 -0.000006 -0.000013 -0.360685 5.885060 -67.144400 11.754300 -0.000000 0.000003 -0.000176 -0.001659 -16.640400 -2.192510 6.469440 -0.000001 173.719000 25.271100 -178.630000 -39.081100 -0.002282 -0.040193 -0.176692 0.302106 30.786300 -40.985400 0.000008 0.000006 4.850250 16.138000 -68.254900 -11.754300 -0.000006 -0.000006 -0.002441 -0.034103 -17.959900
0.000000 0.000000 0.000000 0.000000 0.000000 -0.000000 -1.585740 90.853500 -4.681480 88.616700 -1.853950 13.205100 15.735700 0.000005 -0.000001 90.735800 75.451900 -90.485500 8.984550 -0.406207 -0.000000 21.327200 0.393637 0.428343 16.377300 -0.000001 -0.000001 12.153000 -2.939370 1.327950 6.456720 -0.000001 -0.000000 -8.730310 -3.127320 6.683990 12.994200 -0.242716 4.980390 -90.353200 1.234700 -74.036300 5.348090 -0.000007 -0.000001 -73.118300 -16.599000 -82.427900 24.328600 0.000019 0.000005 31.684100 -5.127780 -98.239400 22.291600 -0.000001 0.000005 15.019100 5.096160 5.201400 12.994500 -0.242716 -4.980390 88.801300 10.193200 -83.256800 -5.348130 -0.000001 -0.000004 -53.521900 34.709600 -26.810900 -24.328900 0.000322 -0.000009 2.876000 6.628690 -23.526700 -22.291500 -0.000108 -0.000004 19.528800 5.424470 -3.750010 -2.192480 -6.469440 -0.000000 -171.923000 -14.601100 -1.122090 39.081100 -0.000007 -0.000012 -0.153696 0.244394 32.165400 40.985400 -0.000006 -0.000013 -0.353671 5.907300 -67.116300 11.754300 -0.000000 0.000003 -0.000172 -0.001631 -16.639300 -2.192510 6.469440 -0.000001 173.718000 25.293500 -178.647000 -39.081100 -0.002282 -0.040193 -0.173408 0.297014 30.750700 -40.985400 0.000008 0.000006 4.850470 16.156900 -68.237600 -11.754300 -0.000006 -0.000006 -0.002356 -0.033091 -17.918700
